<svg width="31" height="31" viewBox="0 0 31 31" fill="none" xmlns="http://www.w3.org/2000/svg">
<path d="M15.3083 30.657C23.7628 30.657 30.6166 23.7942 30.6166 15.3285C30.6166 6.86279 23.7628 0 15.3083 0C6.85376 0 0 6.86279 0 15.3285C0 23.7942 6.85376 30.657 15.3083 30.657Z" fill="white"/>
<mask id="mask0_1502_1211" style="mask-type:luminance" maskUnits="userSpaceOnUse" x="6" y="6" width="19" height="19">
<path d="M6.3844 6.1731H24.5773V24.3845H6.3844V6.1731Z" fill="white"/>
</mask>
<g mask="url(#mask0_1502_1211)">
<path fill-rule="evenodd" clip-rule="evenodd" d="M15.4809 6.1731C13.0104 6.1731 12.7006 6.18358 11.7304 6.22789C10.7622 6.2721 10.1009 6.42604 9.52233 6.65115C8.92416 6.88382 8.41687 7.19517 7.91113 7.70138C7.40544 8.20763 7.0944 8.71543 6.86197 9.31421C6.63709 9.8934 6.4833 10.5553 6.43914 11.5245C6.39487 12.4957 6.3844 12.8058 6.3844 15.2788C6.3844 17.7517 6.39487 18.0618 6.43914 19.0331C6.4833 20.0022 6.63709 20.6642 6.86197 21.2434C7.0944 21.8421 7.40544 22.3499 7.91113 22.8562C8.41687 23.3624 8.92416 23.6738 9.52233 23.9065C10.1009 24.1315 10.7622 24.2855 11.7304 24.3297C12.7006 24.374 13.0104 24.3845 15.4809 24.3845C17.9513 24.3845 18.2611 24.374 19.2313 24.3297C20.1995 24.2855 20.8608 24.1315 21.4394 23.9065C22.0375 23.6738 22.5448 23.3624 23.0506 22.8562C23.5563 22.3499 23.8673 21.8421 24.0998 21.2434C24.3246 20.6642 24.4784 20.0022 24.5226 19.0331C24.5668 18.0618 24.5773 17.7517 24.5773 15.2788C24.5773 12.8058 24.5668 12.4957 24.5226 11.5245C24.4784 10.5553 24.3246 9.8934 24.0998 9.31421C23.8673 8.71543 23.5563 8.20763 23.0506 7.70138C22.5448 7.19517 22.0375 6.88382 21.4394 6.65115C20.8608 6.42604 20.1995 6.2721 19.2313 6.22789C18.2611 6.18358 17.9513 6.1731 15.4809 6.1731ZM15.4809 7.81376C17.9097 7.81376 18.1974 7.82305 19.1566 7.86686C20.0435 7.90734 20.5251 8.05568 20.8457 8.18038C21.2703 8.34556 21.5733 8.54288 21.8916 8.86153C22.2099 9.18015 22.407 9.48348 22.572 9.90851C22.6966 10.2294 22.8448 10.7115 22.8853 11.5993C22.929 12.5595 22.9383 12.8475 22.9383 15.2788C22.9383 17.7101 22.929 17.9981 22.8853 18.9583C22.8448 19.8461 22.6966 20.3282 22.572 20.6491C22.407 21.0741 22.2099 21.3774 21.8916 21.696C21.5733 22.0147 21.2703 22.212 20.8457 22.3772C20.5251 22.5019 20.0435 22.6502 19.1566 22.6907C18.1976 22.7345 17.9099 22.7438 15.4809 22.7438C13.0518 22.7438 12.7642 22.7345 11.8051 22.6907C10.9182 22.6502 10.4366 22.5019 10.116 22.3772C9.69142 22.212 9.3884 22.0147 9.07011 21.696C8.75181 21.3774 8.55466 21.0741 8.38964 20.6491C8.26507 20.3282 8.11688 19.8461 8.07644 18.9583C8.03268 17.9981 8.0234 17.7101 8.0234 15.2788C8.0234 12.8475 8.03268 12.5595 8.07644 11.5993C8.11688 10.7115 8.26507 10.2294 8.38964 9.90851C8.55466 9.48348 8.75177 9.18015 9.07011 8.86153C9.3884 8.54288 9.69142 8.34556 10.116 8.18038C10.4366 8.05568 10.9182 7.90734 11.8051 7.86686C12.7643 7.82305 13.052 7.81376 15.4809 7.81376Z" fill="#025EED"/>
</g>
<path fill-rule="evenodd" clip-rule="evenodd" d="M15.4809 18.0104C13.9737 18.0104 12.7519 16.7874 12.7519 15.2787C12.7519 13.77 13.9737 12.547 15.4809 12.547C16.988 12.547 18.2098 13.77 18.2098 15.2787C18.2098 16.7874 16.988 18.0104 15.4809 18.0104ZM15.4809 10.7258C12.9689 10.7258 10.9326 12.7642 10.9326 15.2787C10.9326 17.7932 12.9689 19.8315 15.4809 19.8315C17.9928 19.8315 20.0291 17.7932 20.0291 15.2787C20.0291 12.7642 17.9928 10.7258 15.4809 10.7258Z" fill="#025EED"/>
<path fill-rule="evenodd" clip-rule="evenodd" d="M21.5452 9.96707C21.5452 10.3862 21.2058 10.7259 20.7871 10.7259C20.3685 10.7259 20.0291 10.3862 20.0291 9.96707C20.0291 9.54799 20.3685 9.20825 20.7871 9.20825C21.2058 9.20825 21.5452 9.54799 21.5452 9.96707Z" fill="#025EED"/>
</svg>
