<svg width="16" height="16" viewBox="0 0 16 16" fill="none" xmlns="http://www.w3.org/2000/svg">
<path d="M15.8096 14.8918L12.463 11.544C13.4785 10.3203 14.0786 8.75036 14.0786 7.04185C14.0786 3.16306 10.9167 0 7.03932 0C3.16193 0 0 3.16306 0 7.04185C0 10.9206 3.16193 14.0837 7.03932 14.0837C8.74721 14.0837 10.3166 13.4603 11.5399 12.4675L14.8864 15.8153C15.0249 15.9538 15.1864 16 15.348 16C15.5096 16 15.6711 15.9307 15.8096 15.8153C16.0635 15.5382 16.0635 15.1227 15.8096 14.8918ZM1.31554 7.04185C1.31554 3.87879 3.90047 1.29293 7.06239 1.29293C10.2243 1.29293 12.8092 3.87879 12.8092 7.04185C12.8092 10.2049 10.2243 12.7908 7.06239 12.7908C3.90047 12.7908 1.31554 10.2049 1.31554 7.04185Z" fill="#262626"/>
</svg>
