<svg width="31" height="31" viewBox="0 0 31 31" fill="none" xmlns="http://www.w3.org/2000/svg">
<path d="M15.3083 30.657C23.7628 30.657 30.6166 23.7942 30.6166 15.3285C30.6166 6.86279 23.7628 0 15.3083 0C6.85376 0 0 6.86279 0 15.3285C0 23.7942 6.85376 30.657 15.3083 30.657Z" fill="white"/>
<path fill-rule="evenodd" clip-rule="evenodd" d="M20.3235 19.7285L20.9914 15.3672H16.8135V12.537C16.8135 11.3438 17.3971 10.1808 19.2684 10.1808H21.1679V6.46778C21.1679 6.46778 19.444 6.1731 17.7959 6.1731C14.355 6.1731 12.1061 8.26181 12.1061 12.0432V15.3672H8.28128V19.7285H12.1061V30.2716C12.873 30.3922 13.6591 30.4549 14.4598 30.4549C15.2605 30.4549 16.0466 30.3922 16.8135 30.2716V19.7285H20.3235Z" fill="#025EED"/>
</svg>
