<svg width="16" height="11" viewBox="0 0 16 11" fill="none" xmlns="http://www.w3.org/2000/svg">
<path d="M15.1117 4.65984H3.03023L6.46515 1.42468C6.81061 1.0993 6.81061 0.569406 6.46515 0.244031C6.11968 -0.0813438 5.55706 -0.0813438 5.2116 0.244031L0.256632 4.90154C0.088834 5.05958 0 5.2734 0 5.49651C0 5.71963 0.088834 5.93345 0.256632 6.09149L5.2116 10.7583C5.38927 10.9256 5.61629 11 5.84331 11C6.07033 11 6.29735 10.9163 6.47502 10.7583C6.82048 10.4329 6.82048 9.90302 6.47502 9.57765L3.03023 6.33319H15.1117C15.6052 6.33319 16 5.96134 16 5.49651C16 5.03169 15.6052 4.65984 15.1117 4.65984Z" fill="#424242"/>
</svg>
