<svg width="696" height="468" viewBox="0 0 696 468" fill="none" xmlns="http://www.w3.org/2000/svg">
<g clip-path="url(#clip0_4708_1927)">
<path d="M84.665 406.375L238.314 404.533L360.971 310.249L207.322 312.091L84.665 406.375Z" fill="#006CFA"/>
<path d="M73.5331 368.576L85.2629 403.98L234.91 402.794C234.91 402.794 232.495 376.831 223.479 365.605C223.479 366.078 73.0156 367.01 73.0156 367.01L73.5331 368.576Z" fill="white" stroke="black" stroke-linecap="round" stroke-linejoin="round"/>
<path d="M71.0146 365.191L224.664 363.349L347.333 269.054L193.683 270.896L71.0146 365.191Z" fill="#00D2FF" stroke="black" stroke-linecap="round" stroke-linejoin="round"/>
<path d="M238.314 404.533C238.314 404.533 234.956 376.774 224.664 363.349L347.321 269.065C357.602 282.49 360.972 310.249 360.972 310.249L238.314 404.533Z" fill="#006CFA" stroke="black" stroke-linecap="round" stroke-linejoin="round"/>
<path d="M238.314 404.533C238.314 404.533 235.497 381.276 227.125 367.045L227.102 366.999C226.331 365.698 225.526 364.466 224.664 363.338L71.0146 365.18L72.1416 368.588L222.904 367.08C229.321 377.983 232.472 394.171 233.599 401.171L83.5265 402.979L84.6535 406.387L234.094 404.591L237.877 404.545H238.291L238.314 404.533Z" fill="#006CFA" stroke="black" stroke-linecap="round" stroke-linejoin="round"/>
<path d="M222.928 367.079L73.5332 368.576" stroke="black" stroke-linecap="round" stroke-linejoin="round"/>
<path d="M224.274 369.543L74.3389 371.04" stroke="black" stroke-linecap="round" stroke-linejoin="round"/>
<path d="M226.516 374.448L75.9717 375.957" stroke="black" stroke-linecap="round" stroke-linejoin="round"/>
<path d="M228.344 379.364L77.6045 380.884" stroke="black" stroke-linecap="round" stroke-linejoin="round"/>
<path d="M229.885 384.292L79.2373 385.8" stroke="black" stroke-linecap="round" stroke-linejoin="round"/>
<path d="M231.185 389.208L80.8594 390.716" stroke="black" stroke-linecap="round" stroke-linejoin="round"/>
<path d="M232.312 394.136L82.4922 395.644" stroke="black" stroke-linecap="round" stroke-linejoin="round"/>
<path d="M233.519 399.063L84.125 400.56" stroke="black" stroke-linecap="round" stroke-linejoin="round"/>
<path d="M196.766 384.05L193.397 413.616L186.738 404.843L176.584 415.424L180.126 384.349L196.766 384.05Z" fill="#00D2FF" stroke="black" stroke-linecap="round" stroke-linejoin="round"/>
<path d="M196.766 384.05L198.318 405.016L194.374 405.062L196.766 384.05Z" fill="black" stroke="black" stroke-linecap="round" stroke-linejoin="round"/>
<path d="M224.273 270.539L284.257 317.537L291.892 363.338L360.972 310.249L356.51 289.145L347.333 269.054L224.273 270.539Z" fill="black" stroke="black" stroke-linecap="round" stroke-linejoin="round"/>
<path d="M538.438 337.835L316.813 312.425L153.596 158.099L375.22 183.509L538.438 337.835Z" fill="#006CFA"/>
<path d="M560.103 284.896L537.931 334.3L321.999 310.433C321.999 310.433 329.324 273.29 343.987 258.415C343.929 259.094 561.081 282.708 561.081 282.708L560.103 284.896Z" fill="white" stroke="black" stroke-linecap="round" stroke-linejoin="round"/>
<path d="M564.231 280.372L342.607 254.961L179.378 100.635L401.003 126.045L564.231 280.372Z" fill="#00D2FF" stroke="black" stroke-linecap="round" stroke-linejoin="round"/>
<path d="M316.813 312.425C316.813 312.425 325.771 272.83 342.607 254.961L179.378 100.635C162.542 118.504 153.584 158.098 153.584 158.098L316.813 312.425Z" fill="#001E2B" stroke="black" stroke-linecap="round" stroke-linejoin="round"/>
<path d="M322.873 313.139C322.873 313.139 331.831 273.544 348.667 255.675L342.607 254.961C325.771 272.83 316.812 312.425 316.812 312.425L322.873 313.139Z" fill="black"/>
<path d="M338.489 259.935L562.092 285.126L564.231 280.371L342.595 254.961L338.489 259.935Z" fill="black" stroke="black" stroke-linecap="round" stroke-linejoin="round"/>
<path d="M316.812 312.425L538.437 337.835L540.565 333.092L318.94 307.682L316.812 312.425Z" fill="black" stroke="black" stroke-linecap="round" stroke-linejoin="round"/>
<path d="M344.573 260.614L560.103 284.896" stroke="black" stroke-linecap="round" stroke-linejoin="round"/>
<path d="M342.262 263.965L558.562 288.327" stroke="black" stroke-linecap="round" stroke-linejoin="round"/>
<path d="M338.294 270.734L555.48 295.189" stroke="black" stroke-linecap="round" stroke-linejoin="round"/>
<path d="M334.925 277.562L552.398 302.063" stroke="black" stroke-linecap="round" stroke-linejoin="round"/>
<path d="M331.98 284.436L549.327 308.925" stroke="black" stroke-linecap="round" stroke-linejoin="round"/>
<path d="M329.358 291.355L546.245 315.787" stroke="black" stroke-linecap="round" stroke-linejoin="round"/>
<path d="M327.024 298.298L543.164 322.649" stroke="black" stroke-linecap="round" stroke-linejoin="round"/>
<path d="M324.552 305.24L540.082 329.511" stroke="black" stroke-linecap="round" stroke-linejoin="round"/>
<path d="M379.843 288.983L380.337 332.193L392.274 320.853L404.349 337.294L403.831 291.885L379.843 288.983Z" fill="#00D2FF" stroke="black" stroke-linecap="round" stroke-linejoin="round"/>
<path d="M105.571 167.597C112.494 170.625 117.462 174.148 120.464 178.178C123.465 182.196 125.662 186.582 127.065 191.303C128.456 196.023 130.63 206.409 133.574 222.424C134.632 228.238 136.265 231.992 138.495 233.707C140.726 235.423 146.683 235.503 156.401 233.972L160.196 258L154.871 258.841C145.568 260.315 138.231 260.626 132.895 259.797C127.548 258.956 122.971 256.953 119.176 253.775C115.381 250.597 112.632 246.337 110.93 241.007C109.228 235.676 107.492 227.34 105.698 216.022C103.352 201.135 99.994 191.867 95.6471 188.194C91.2887 184.521 86.0677 183.151 78.7539 184.234L77.1094 171.511L105.571 167.608V167.597Z" fill="black"/>
<path d="M106.515 167.355C111.989 162.899 115.738 157.96 117.773 152.549C119.797 147.126 120.395 139.654 119.556 130.109L117.026 100.554C117.244 97.6524 118.394 95.3152 120.476 93.5536C122.557 91.792 127.698 90.3529 135.885 89.213L132.551 65.0117L127.318 65.7371C116.577 67.2223 108.447 69.5941 102.95 72.8524C97.4416 76.1107 93.7731 80.7161 91.9216 86.657C90.0702 92.598 90.0012 101.786 91.7146 114.22C93.6006 127.933 94.3366 136.775 93.9226 140.736C93.5086 144.696 92.1746 148.461 89.9322 152.019C87.6897 155.577 82.8483 158.018 75.4424 159.307L77.1214 171.5L106.526 167.355H106.515Z" fill="black"/>
<path d="M70.716 154.16C77.6389 157.188 82.6068 160.711 85.6083 164.741C88.6097 168.759 90.8062 173.146 92.2092 177.866C93.6007 182.587 95.7741 192.972 98.7181 208.987C99.7761 214.802 101.409 218.555 103.64 220.271C105.871 221.974 111.828 222.067 121.545 220.535L125.34 244.564L120.016 245.404C110.712 246.878 103.376 247.189 98.0396 246.36C92.6922 245.52 88.1152 243.516 84.3203 240.338C80.5254 237.161 77.7769 232.901 76.0749 227.57C74.3729 222.239 72.6365 213.904 70.8425 202.586C68.4965 187.699 65.1386 178.431 60.7916 174.758C56.4332 171.085 51.2123 169.715 43.8984 170.797L42.2539 158.075L70.716 154.172V154.16Z" fill="#00ED64" stroke="black" stroke-linecap="round" stroke-linejoin="round"/>
<path d="M71.6472 153.918C77.1211 149.463 80.8701 144.523 82.9055 139.112C84.9295 133.689 85.5275 126.217 84.688 116.672L82.1581 87.1173C82.3765 84.2159 83.5265 81.8786 85.608 80.1171C87.6895 78.3555 92.8299 76.9163 101.018 75.7765L97.7058 51.5752L92.4734 52.3005C81.7326 53.7858 73.6022 56.1576 68.1053 59.4159C62.5968 62.6742 58.9284 67.2796 57.0769 73.2205C55.2254 79.1615 55.1564 88.3492 56.8699 100.784C58.7559 114.496 59.4919 123.339 59.0779 127.299C58.6639 131.26 57.3299 135.025 55.0874 138.582C52.845 142.14 48.0035 144.581 40.5977 145.871L42.2766 158.063L71.6817 153.918H71.6472Z" fill="white" stroke="black" stroke-linecap="round" stroke-linejoin="round"/>
<path d="M589.589 322.66C582.54 325.4 577.445 328.728 574.283 332.631C571.12 336.534 568.74 340.817 567.153 345.48C565.566 350.143 562.978 360.424 559.39 376.313C558.102 382.081 556.308 385.765 554.02 387.389C551.731 389.001 545.763 388.851 536.126 386.928L531.365 410.784L536.655 411.843C545.901 413.697 553.203 414.307 558.585 413.686C563.967 413.064 568.613 411.245 572.535 408.217C576.456 405.2 579.377 401.055 581.286 395.794C583.195 390.532 585.276 382.277 587.519 371.04C590.463 356.268 594.189 347.126 598.685 343.638C603.182 340.138 608.46 338.986 615.728 340.368L617.879 327.726L589.6 322.672L589.589 322.66Z" fill="black"/>
<path d="M588.668 322.373C583.378 317.698 579.825 312.621 578.019 307.117C576.214 301.625 575.926 294.119 577.145 284.62L580.86 255.192C580.756 252.279 579.71 249.907 577.697 248.053C575.685 246.211 570.614 244.553 562.472 243.102L566.773 219.051L571.982 219.983C582.654 221.895 590.681 224.6 596.051 228.077C601.422 231.554 604.906 236.298 606.516 242.319C608.126 248.33 607.827 257.517 605.608 269.871C603.17 283.503 602.077 292.299 602.33 296.272C602.583 300.244 603.756 304.066 605.861 307.716C607.965 311.366 612.691 313.991 620.051 315.591L617.878 327.703L588.668 322.373Z" fill="black"/>
<path d="M624.974 310.641C617.924 313.381 612.83 316.708 609.667 320.611C606.505 324.514 604.124 328.797 602.538 333.46C600.951 338.123 598.363 348.405 594.775 364.293C593.487 370.062 591.693 373.746 589.405 375.369C587.116 376.993 581.148 376.832 571.511 374.909L566.75 398.765L572.04 399.824C581.286 401.678 588.588 402.288 593.97 401.666C599.352 401.044 603.998 399.225 607.919 396.197C611.841 393.181 614.762 389.036 616.671 383.774C618.58 378.513 620.661 370.257 622.904 359.02C625.848 344.248 629.574 335.107 634.07 331.618C638.566 328.118 643.845 326.967 651.113 328.348L653.263 315.707L624.985 310.652L624.974 310.641Z" fill="#00ED64" stroke="black" stroke-linecap="round" stroke-linejoin="round"/>
<path d="M624.042 310.364C618.752 305.689 615.199 300.612 613.393 295.109C611.588 289.617 611.301 282.11 612.52 272.611L616.234 243.183C616.13 240.27 615.084 237.898 613.071 236.044C611.059 234.202 605.988 232.544 597.846 231.094L602.147 207.042L607.356 207.975C618.028 209.886 626.055 212.591 631.425 216.069C636.796 219.546 640.28 224.289 641.89 230.311C643.5 236.321 643.201 245.508 640.982 257.862C638.544 271.494 637.451 280.291 637.704 284.263C637.957 288.235 639.13 292.057 641.235 295.707C643.339 299.357 648.065 301.982 655.425 303.582L653.252 315.695L624.042 310.364Z" fill="white" stroke="black" stroke-linecap="round" stroke-linejoin="round"/>
<path d="M379.844 288.983L374.496 319.034L380.189 319.69L379.844 288.983Z" fill="black" stroke="black" stroke-linecap="round" stroke-linejoin="round"/>
<path d="M275.482 407.825L364.606 339.32" stroke="black" stroke-miterlimit="10" stroke-dasharray="2 2"/>
<path d="M304.737 408.252L356.349 368.576" stroke="black" stroke-miterlimit="10" stroke-dasharray="2 2"/>
<path d="M523.384 144.041C532.606 144.041 540.082 136.556 540.082 127.323C540.082 118.09 532.606 110.605 523.384 110.605C514.162 110.605 506.687 118.09 506.687 127.323C506.687 136.556 514.162 144.041 523.384 144.041Z" fill="white" stroke="black" stroke-linecap="round" stroke-linejoin="round"/>
<path d="M513.989 141.14C516.669 142.97 519.9 144.041 523.385 144.041C532.607 144.041 540.082 136.557 540.082 127.323C540.082 123.835 539.013 120.6 537.184 117.917C531.296 127.289 523.35 135.245 513.989 141.14Z" fill="black" stroke="black" stroke-linecap="round" stroke-linejoin="round"/>
</g>
<defs>
<clipPath id="clip0_4708_1927">
<rect width="616" height="365" fill="white" transform="translate(40 51)"/>
</clipPath>
</defs>
</svg>
