<svg width="7" height="13" viewBox="0 0 7 13" xmlns="http://www.w3.org/2000/svg" xmlns:xlink="http://www.w3.org/1999/xlink"><title>Path</title><desc>Created with Sketch.</desc><g id="Design-System" stroke="none" stroke-width="1" fill="none" fill-rule="evenodd"><g id="Lists" transform="translate(-840.000000, -979.000000)" fill="#a6a6a6" fill-rule="nonzero"><g id="Listing-Thumbnail" transform="translate(155.000000, 869.000000)"><g id="Group-8"><g id="Group-5" transform="translate(20.500000, 80.000000)"><path d="M667.99998 40C667.784916 40 667.569878 39.915967 667.40591 39.7482543L662.24617 34.4680363C661.917943 34.1321489 661.917943 33.5875651 662.24617 33.2518136 662.574264 32.9160621 663.106322 32.9160621 663.434575 33.2518136L667.99998 37.9240426 672.565412 33.2519767C672.893639 32.9162252 673.425643 32.9162252 673.75371 33.2519767 674.082097 33.5877282 674.082097 34.132312 673.75371 34.4681994L668.59405 39.7484174C668.430003 39.9161572 668.214965 40 667.99998 40z" id="Path" transform="translate(668.000000, 36.500000) scale(-1, 1) rotate(90.000000) translate(-668.000000, -36.500000)"/></g></g></g></g></g></svg>